Patient4_TMGait_0pt7_01_right_32_EMG.mot
version=1
nRows=29
nColumns=33
inDegrees=no
endheader
time	1LAddLong	2LGlutMax	3LGlutMed	4LIliopsoas	5LSemiMemb	6LBicFemLong	7LRecFem	8LVastMed	9LVastLat	10LGasMed	11LTibAnt	12lTibPost	13LPeroneusLong	14LSol	15LExtDigLong	16LFlexDigLong	17RAddLong	18RGlutMax	19RGlutMed	20RIliopsoas	21RSemiMemb	22RBicFemLong	23RRecFem	24RVastMed	25RVastLat	26RGasMed	27RTibAnt	28RTibPost	29RPeroneusLong	30RSol	31RExtDigLong	32RFlexDigLong
37.608	-0.009613	0.07431	0.03067	-0.007477	0.095673	-0.14862	0.040436	0.017242	-0.000153	-0.18524	0.022736	-0.011444	-0.12817	-0.24262	0.029907	-0.32837	0.010986	0.038757	0.10574	0.060883	-0.015259	0.00473	0.030823	0.001068	0.000763	-0.018158	0.32532	0.002289	-0.27786	-0.15671	-0.002289	-0.00061
37.609	-0.003204	0.047302	0.053864	0.001984	0.031433	-0.085144	0.050049	0.009918	0.003815	-0.16266	-0.007935	-0.009766	-0.080566	-0.13794	0.04364	-0.80582	0.033417	-0.035095	-0.035858	0.093384	0.005188	-0.030823	0.007172	-0.040131	0.013885	-0.024567	0.44678	0.000458	-0.13809	-0.14877	-0.006714	0.002136
37.61	0.00946	0.039063	-0.014343	0.011139	0.026703	-0.063324	0.065308	0.011292	0.004425	-0.078583	0.003662	-0.006866	-0.025024	-0.10681	0.030518	0.41153	0.031586	-0.065155	-0.14847	0.038757	0.075226	-0.059052	0.011597	-0.063782	-0.014038	-0.032654	0.3714	-0.001678	-0.11429	-0.12421	-0.003967	-0.002441
37.611	-0.006714	0.016327	-0.062714	0.016937	0.029297	0.001526	0.079346	0.013275	-0.012512	0.019531	0.028229	-0.006256	0.082855	-0.16174	0.046844	-0.042267	0.014801	-0.027771	-0.37491	-0.001068	0.033112	-0.086823	0.027618	-0.07782	0.00351	-0.037689	0.027313	0.000458	0.037079	-0.10208	-0.002441	-0.003357
37.612	-0.010223	0.030823	-0.067291	0.024109	-0.026245	0.076599	0.14114	0.019531	-0.036926	0.078278	0.047455	-0.001678	0.17075	-0.24948	0.062408	0.12161	-0.014038	0.041046	-0.33432	-0.017395	-0.038147	-0.10223	0.009766	-0.067596	0.011292	-0.04425	-0.60577	-0.00351	0.008698	-0.036163	0.003815	0.005035
37.613	-0.010376	0.034027	-0.041809	0.006104	-0.055542	0.059814	0.15686	0.019989	-0.051727	0.12405	0.028839	0.003662	0.11917	-0.2562	0.044708	0.15533	-0.010834	0.10803	0.14297	-0.020142	-0.11444	-0.006714	0.044403	-0.062561	0.018921	-0.040588	-0.045319	-0.00061	-0.20233	-0.11154	-0.00824	0.01358
37.614	0.005798	0.053558	-0.11856	0.010223	-0.016785	0.071411	0.11185	0.024719	-0.075531	0.21118	0.028076	-0.001373	0.028076	-0.20935	0.04425	0.38025	-0.011139	0.14771	0.60135	0.000305	-0.12634	0.085297	0.01709	-0.084381	0.003815	-0.037537	-0.037689	-0.001526	0.23834	-0.052795	-0.005341	0.014954
37.615	0	0.069427	-0.098877	0.005188	0.056915	0.12802	0.019989	0.045319	-0.062866	0.23651	-0.010986	-0.007172	-0.020294	-0.071716	0.03006	-0.31845	-0.00946	0.11902	0.72876	-0.069427	-0.12787	0.10696	0.027313	-0.065308	0.011444	-0.038452	0.015564	-0.005341	0.44098	-0.0383	-0.003815	0.007172
37.616	-0.011902	0.071106	0.057983	0	0.034485	0.10925	-0.066376	0.044708	-0.034637	0.22446	0.041351	0.002899	-0.03418	-0.016022	0.004272	-0.097809	-0.021973	0.10651	0.37811	-0.037384	0.038605	0.089417	0.026398	-0.044556	0.020447	-0.042877	0.007629	-0.001831	0.35355	0.004272	-0.004883	0.008545
37.617	0.002594	0.084839	0.22537	-0.007782	-0.020752	0.024872	-0.14694	0.050354	-0.078278	0.17487	0.11932	-0.002289	-0.060577	-0.11383	0.012207	0.026398	-0.004578	0.11139	-0.077209	-0.015717	-0.001221	0.035248	0.029449	-0.03952	-0.0177	-0.040131	0.12604	-0.006866	0.11246	0.034637	-0.00412	0.011292
37.618	0.011444	0.032654	0.054779	0.000305	-0.03067	-0.03479	-0.23102	0.033112	-0.047302	0.076599	0.17349	0.001831	-0.071259	-0.31799	-0.035858	0.072937	0.014648	0.053406	-0.16602	-0.071869	-0.042572	-0.00473	0.029755	-0.062408	-0.014648	-0.037994	-0.14465	-0.001678	-0.14786	0.13611	-0.002747	0.006104
37.619	0.002289	0.008392	-0.1268	-0.00473	0.046234	-0.026398	-0.21194	-0.004578	0.15976	-0.001984	0.15656	-0.002747	-0.074005	-0.2681	0.084381	-0.008545	0.01358	0.012512	-0.41199	-0.018616	-0.26886	0.011597	0.017242	-0.092773	-0.002899	-0.033112	-0.29907	-0.006561	-0.27023	0.21606	-0.001831	0.009155
37.62	-0.007477	0.00946	-0.063629	-0.006561	0.057678	0.00412	-0.070648	-0.008545	0.2301	-0.066071	0.071411	-0.003204	-0.031281	-0.061646	0.074005	-0.012054	0.022583	0.022888	-0.32379	0.036163	-0.49133	0.045624	0.066223	-0.10757	-0.003357	-0.036163	-0.25726	-0.002289	0.007629	0.11704	0.002594	0.001831
37.621	-0.000916	0.008545	0.00824	0.008392	0.057526	0.031738	0.071411	0.00061	0.25604	-0.08255	-0.10117	0.010071	0.016785	0.11719	0.57281	0.004578	0.036163	0.05127	-0.22797	0.018463	-0.61386	0.08606	0.012665	-0.058289	0.002747	-0.030823	-0.16632	-0.001221	0.25177	0.026703	-0.001831	0.00473
37.622	0.008545	-0.014191	0.000458	0.017853	0.019073	0.068665	0.17777	0.012665	0.11215	-0.061951	-0.2095	-0.000916	0.037842	0.14603	0.26184	-0.043945	0.011444	0.016937	-0.15717	-0.014801	0.057068	0.12116	-0.039063	-0.010376	0.020447	-0.02594	-0.19836	-0.001373	0.25742	0.010986	-0.00061	0.002899
37.623	0.016785	-0.018158	-0.1062	0.014954	-0.001678	0.050354	0.13779	0.009918	-0.007782	-0.077209	0.015106	-0.002441	0.024567	0.22492	0.38559	-0.023346	-0.010223	0.02121	-0.040588	-0.042725	0.56686	0.017548	-0.036316	-0.018158	0.027924	-0.023041	-0.1648	-0.003357	0.066986	-0.033112	-0.002899	0.002441
37.624	0.02243	-0.029144	-0.083923	0.010681	-0.011292	0.042114	0.06424	-0.004272	-0.06134	-0.048676	0.25864	0.002899	-0.05722	0.22903	-0.19516	-0.019226	0.003815	0.04715	-0.02655	0.053558	0.28732	-0.007935	-0.035553	-0.038605	0.029449	-0.019379	-0.074158	-0.000916	0.13077	0.036774	-0.001221	-0.011902
37.625	0.023956	-0.028381	-0.096283	0.015564	-0.028992	0.0354	0.011292	0.009308	-0.025177	-0.084381	0.15045	-0.013275	-0.030975	0.21545	-0.33157	-0.094147	-0.009155	0.023041	-0.18097	0.11978	0.10819	-0.008087	-0.019531	-0.044403	-0.00061	-0.020599	-0.010529	0.00061	-0.12085	0.062256	-0.003052	-0.023651
37.626	0.009613	-0.007935	-0.18616	0.014801	-0.012512	0.005035	0.030365	0.016327	0.00824	-0.08728	0.010223	-0.002136	0.033112	0.12497	-0.49042	-0.099487	-0.012665	0.038147	-0.3627	-0.027924	0.068359	-0.023651	-0.016632	-0.058441	0.013428	-0.01709	-0.018616	-0.000458	-0.28671	0.054169	-0.00061	-0.016327
37.627	0.00061	-0.026245	-0.18066	0.005341	-0.016174	-0.016479	0.039978	0.018921	0.021515	-0.021362	-0.14374	0.006714	0.080261	0.086365	-0.45151	-0.0177	-0.009003	0.010071	-0.27527	-0.16357	0.07843	-0.033417	-0.042725	-0.06012	-0.011292	-0.013885	-0.019226	-0.002441	-0.15015	0.021667	-0.003662	-0.022125
37.628	0.005035	-0.033722	-0.079193	-0.002594	-0.002747	-0.048065	0.083923	0.019226	0.034637	0.02243	-0.19424	-0.005188	0.040436	0.098419	-0.26688	0.007782	0.022736	0.007019	-0.066986	-0.19592	0.071716	-0.025024	-0.019684	-0.076752	0.009308	-0.009155	0.023651	-0.001984	-0.10834	0.02594	-0.001221	-0.007629
37.629	-0.004883	-0.042572	0.050507	0.006714	0.006866	-0.032349	0.10742	0.027924	0.007324	0.046844	-0.17044	-0.003357	-0.01297	-0.007629	-0.21469	0.000305	0.031281	0.057678	0.25024	-0.08316	0.015869	-0.020752	-0.050507	-0.080261	0.011292	-0.007935	0.057678	-0.002289	-0.24796	0.037079	-0.002899	-0.015259
37.63	-0.001678	-0.027161	-0.018311	-0.012207	0.019379	0.018921	0.071411	0.021667	-0.007324	0.027466	-0.093384	-0.003815	-0.012512	-0.11856	-0.12787	-0.023193	0.027313	0.076141	0.27222	0.12314	-0.06485	0.059204	-0.031586	-0.081787	0.021515	-0.000763	0.092926	-0.001068	-0.19241	0.03479	-0.003967	-0.011292
37.631	-0.010071	-0.047302	-0.081024	-0.010071	-0.012207	0.052948	0.06485	0.026245	-0.008545	0.011292	-0.032654	-0.002136	-0.023804	-0.11169	0.022888	0.016022	0.020752	0.029755	0.14175	0.24445	-0.060425	0.049896	-0.037384	-0.11032	0.001831	0.007324	0.038147	-0.008545	-0.078278	0.024719	0.002594	-0.011139
37.632	0.002289	-0.061798	-0.080109	0.026093	-0.085602	0.056915	0.052795	0.02594	-0.019531	-0.12253	-0.045471	-0.002899	-0.037842	-0.098114	0.041351	0.024567	0.059967	-0.02121	0.041809	0.26566	-0.070801	0.03952	-0.077362	-0.058136	0.021973	0.009918	0.050507	-0.001068	-0.12299	0.013733	-0.003967	-0.010376
37.633	0.000153	-0.063324	-0.10925	-0.006866	-0.073853	-0.001068	0.049896	0.035553	-0.030212	-0.22492	-0.05188	0.008698	-0.00885	0.052643	0.031281	-0.053101	0.086975	-0.03479	0.16693	0.23483	-0.074768	0.007782	-0.035553	-0.050964	0.020905	0.009613	0.046387	-0.001984	-0.11078	-0.011902	-0.002594	-0.004883
37.634	0.001373	-0.08606	-0.074768	0.000763	0.003662	-0.041656	0.067139	0.010986	-0.001678	-0.089874	-0.028381	0.019379	0.000153	0.11459	0.038147	-0.062714	0.055847	-0.034943	0.38711	0.021667	-0.020905	-0.03479	-0.03952	-0.074005	0.021057	0.011444	-0.06424	-0.004425	-0.066986	-0.022583	-0.003357	-0.00061
37.635	0.018158	-0.053558	0.053253	-0.002136	0.056	-0.026093	0.11551	0.001373	-0.002289	0.14084	-0.00473	0.027008	-0.020599	0.016174	0.032349	0.000153	0.013885	-0.025177	0.020142	-0.017548	0.097809	-0.028076	-0.041809	-0.091705	0.04776	0.008698	-0.022888	-0.001373	-0.048065	-0.050049	-0.008392	-0.002289
37.636	0.007629	-0.05127	0.077515	0.014801	0.072174	-0.00061	0.14786	0.009155	-0.029602	0.30746	0.004272	0.002441	-0.035095	0.01236	0.045776	0.11093	0.005341	-0.011902	-0.097656	-0.001678	0.084076	-0.097351	-0.057678	-0.11246	0.039368	0.011902	-0.000916	-0.003204	-0.19363	-0.079041	-0.002594	-0.000458
